External Loads File
version=1
nRows=39
nColumns=13
Range=5.000000e-03-10 seconds
endheader
time 	forceRightX 	forceRightY 	forceRightZ 	pointRightX 	pointRightY 	pointRightZ 	forceLeftX 	forceLeftY 	forceLeftZ 	pointLeftX 	pointLeftY 	pointLeftZ 		
5.005000 104.696931 146.975008 -0.000000 0.252866 0.151175 -0.125373 -5.364329 113.651851 -0.000000 0.384075 0.481076 -0.366598
5.010000 91.263599 112.081218 -0.000000 0.244202 0.155385 -0.125437 -7.939879 124.127339 -0.000000 0.391474 0.477077 -0.366962
5.015000 78.616547 80.834053 -0.000000 0.235712 0.160152 -0.125506 -10.305584 135.965299 -0.000000 0.398458 0.472308 -0.367074
5.020000 66.875150 53.346198 -0.000000 0.227457 0.165481 -0.125455 -12.489197 149.124919 -0.000000 0.405145 0.466788 -0.367413
5.025000 56.068705 29.703677 -0.000000 0.219560 0.171324 -0.125364 -14.747742 163.438117 -0.000000 0.411294 0.460533 -0.368034
5.030000 46.284924 9.767932 -0.000000 0.212061 0.177723 -0.125335 -17.129955 178.647571 -0.000000 0.417178 0.453505 -0.368606
5.035000 37.514430 -6.621427 -0.000000 0.205006 0.184489 -0.125244 -19.927477 194.392334 -0.000000 0.422809 0.445839 -0.368806
5.040000 29.723846 -19.731572 -0.000000 0.198505 0.191784 -0.125201 -23.511811 210.252728 -0.000000 0.427946 0.437674 -0.369102
5.045000 22.774924 -29.969863 -0.000000 0.192612 0.199454 -0.125084 -27.940246 225.851544 -0.000000 0.433074 0.428954 -0.369668
5.050000 16.479804 -37.745463 -0.000000 0.187169 0.207546 -0.124963 -33.628470 240.862288 -0.000000 0.437643 0.419840 -0.369837
5.055000 10.592827 -43.474891 -0.000000 0.182378 0.215937 -0.124768 -40.719630 255.161242 -0.000000 0.441935 0.410297 -0.370065
5.060000 4.898054 -47.452344 -0.000000 0.178098 0.224708 -0.124784 -49.225311 268.848033 -0.000000 0.445879 0.400450 -0.370096
5.065000 -0.708344 -49.831700 -0.000000 0.174502 0.233759 -0.124766 -59.008184 282.169973 -0.000000 0.449427 0.390189 -0.370217
5.070000 -6.205475 -50.683462 -0.000000 0.171395 0.242989 -0.124726 -69.729237 295.417193 -0.000000 0.452804 0.379854 -0.370158
5.075000 -11.460374 -50.058753 -0.000000 0.168981 0.252555 -0.124615 -81.019925 308.867602 -0.000000 0.455560 0.369523 -0.370032
5.080000 -16.382314 -48.000462 -0.000000 0.167027 0.262273 -0.124612 -91.891002 322.990046 -0.000000 0.457910 0.358792 -0.369995
5.085000 -20.757490 -44.598759 -0.000000 0.165314 0.272243 -0.124366 -101.990656 338.132002 -0.000000 0.459536 0.347880 -0.369997
5.090000 -24.390775 -39.987540 -0.000000 0.163376 0.282359 -0.127167 -110.894975 354.666512 -0.000000 0.460769 0.336802 -0.370050
5.095000 -27.041855 -34.415206 -0.000000 0.164788 0.292767 -0.124850 -118.885968 372.723667 -0.000000 0.461560 0.325613 -0.370099
5.100000 -28.652955 -28.141147 -0.000000 0.165296 0.303151 -0.124680 -125.430772 392.634368 -0.000000 0.461748 0.314507 -0.370522
5.105000 -29.264742 -21.456590 -0.000000 0.166437 0.313754 -0.124807 -130.033998 414.638728 -0.000000 0.461268 0.303324 -0.370157
5.110000 -28.991674 -14.687205 -0.000000 0.168121 0.324439 -0.124888 -132.788427 438.667830 -0.000000 0.460277 0.292218 -0.370022
5.115000 -28.028928 -8.099193 -0.000000 0.170670 0.335228 -0.125000 -133.507180 464.613238 -0.000000 0.458637 0.281319 -0.369963
5.120000 -26.571707 -1.944046 -0.000000 0.173239 0.345858 -0.125135 -132.583241 492.099802 -0.000000 0.456504 0.270584 -0.369830
5.125000 -24.829917 3.630600 -0.000000 0.176773 0.356413 -0.125243 -129.344580 520.947427 -0.000000 0.453780 0.260051 -0.369656
5.130000 -22.995977 8.510136 -0.000000 0.180884 0.366938 -0.125405 -123.433129 550.728059 -0.000000 0.450537 0.249683 -0.369437
5.135000 -21.250842 12.663976 -0.000000 0.185498 0.377231 -0.125611 -115.019619 580.765410 -0.000000 0.446689 0.239615 -0.369372
5.140000 -19.720144 16.208044 -0.000000 0.190539 0.387445 -0.125760 -103.658167 610.425510 -0.000000 0.442277 0.229890 -0.369071
5.145000 -18.473340 19.324952 -0.000000 0.196264 0.397350 -0.125909 -89.283362 638.915229 -0.000000 0.437285 0.220586 -0.368873
5.150000 -17.496744 22.257772 -0.000000 0.202496 0.407119 -0.126042 -71.183569 665.489665 -0.000000 0.431603 0.211567 -0.368720
5.155000 -16.797248 25.210626 -0.000000 0.209225 0.416375 -0.126281 -50.841029 689.168377 -0.000000 0.425559 0.203061 -0.368465
5.160000 -16.292184 28.444736 -0.000000 0.216486 0.425142 -0.126424 -27.937568 709.277712 -0.000000 0.419060 0.194916 -0.368207
5.165000 -15.895364 32.199536 -0.000000 0.224044 0.433566 -0.126662 -2.777077 725.138410 -0.000000 0.412070 0.187031 -0.368174
5.170000 -15.527122 36.684874 -0.000000 0.232119 0.441771 -0.126832 23.846182 736.157040 -0.000000 0.404646 0.179943 -0.368039
5.175000 -15.135414 42.057699 -0.000000 0.240451 0.449396 -0.127173 50.579693 741.938187 -0.000000 0.396825 0.173494 -0.367762
5.180000 -14.497089 48.480136 -0.000000 0.250131 0.456271 -0.126097 79.090422 742.075410 -0.000000 0.388626 0.167533 -0.367264
5.185000 -13.978656 55.873546 -0.000000 0.258038 0.462537 -0.127357 102.208437 737.295514 -0.000000 0.380161 0.162047 -0.367078
5.190000 -13.160118 64.309398 -0.000000 0.267089 0.468278 -0.127625 125.262936 727.190254 -0.000000 0.371456 0.157316 -0.366830
5.195000 -12.143412 73.587065 -0.000000 0.276201 0.473649 -0.127963 145.892116 712.204882 -0.000000 0.362482 0.153053 -0.366755
